<?xml version="1.0" encoding="UTF-8" standalone="no"?>
<!DOCTYPE svg PUBLIC "-//W3C//DTD SVG 1.1//EN" "http://www.w3.org/Graphics/SVG/1.1/DTD/svg11.dtd">
<svg width="100%" height="100%" viewBox="0 0 340 80" version="1.1" xmlns="http://www.w3.org/2000/svg" xmlns:xlink="http://www.w3.org/1999/xlink" xml:space="preserve" xmlns:serif="http://www.serif.com/" style="fill-rule:evenodd;clip-rule:evenodd;stroke-linejoin:round;stroke-miterlimit:2;">
    <g id="SvgjsG1183" transform="matrix(2.99169,0,0,2.99169,2.04602,1.72685)">
        <path d="M4.64,16.72L4.72,5.64L6.64,5.64L6.52,20.08L3.54,20.08L1.92,8.9L1.92,20.08L-0,20.08L-0,5.64L3.1,5.64L4.64,16.72ZM13.835,10.62L13.835,12.5L11.015,12.5L11.015,19.96L9.135,19.96L9.135,5.72L13.795,5.72L13.795,7.62L11.015,7.62L11.015,10.62L13.835,10.62ZM23.249,5.68L23.249,7.6L20.869,7.6L20.869,20.02L18.949,20.02L18.949,7.6L16.329,7.6L16.329,5.68L23.249,5.68Z" style="fill:rgb(17,17,17);fill-rule:nonzero;"/>
    </g>
    <g transform="matrix(0.830769,0,0,0.830769,82.9076,-792.731)">
        <g id="SvgjsG1184">
            <g>
                <path d="M14,963.362C12.355,963.362 11,964.717 11,966.362L11,1038.36C11,1040.01 12.355,1041.36 14,1041.36L86,1041.36C87.645,1041.36 89,1040.01 89,1038.36L89,966.362C89,964.717 87.645,963.362 86,963.362L14,963.362ZM14,965.362L37,965.362L37,974.456C34.722,974.922 33,976.946 33,979.362C33,982.124 35.239,984.362 38,984.362C40.761,984.362 43,982.124 43,979.362C43,976.946 41.278,974.922 39,974.456L39,965.362L59.375,965.362L52.344,971.612C52.13,971.798 52.001,972.079 52,972.362L52,988.456C49.722,988.922 48,990.946 48,993.362C48,996.124 50.239,998.362 53,998.362C55.761,998.362 58,996.124 58,993.362C58,990.946 56.278,988.922 54,988.456L54,972.8L62.375,965.362L86,965.362C86.571,965.362 87,965.791 87,966.362L87,986.362C82.944,986.362 78.853,986.362 74.813,986.362C74.598,986.401 74.397,986.513 74.25,986.675L69.469,992.05C68.733,991.624 67.911,991.362 67,991.362C64.239,991.362 62,993.601 62,996.362C62,999.124 64.239,1001.36 67,1001.36C69.761,1001.36 72,999.124 72,996.362C72,995.24 71.624,994.196 71,993.362L75.438,988.362L87,988.362L87,1026.36L74.563,1026.36L69.406,1017.99C70.377,1017.08 71,1015.8 71,1014.36C71,1011.6 68.761,1009.36 66,1009.36C63.239,1009.36 61,1011.6 61,1014.36C61,1017.12 63.239,1019.36 66,1019.36C66.61,1019.36 67.178,1019.22 67.719,1019.02L73.156,1027.86C73.327,1028.16 73.658,1028.35 74,1028.36L87,1028.36L87,1038.36C87,1038.93 86.571,1039.36 86,1039.36L39,1039.36L39,1025.8L44.031,1021.33C44.866,1021.96 45.876,1022.36 47,1022.36C49.761,1022.36 52,1020.12 52,1017.36C52,1014.6 49.761,1012.36 47,1012.36C44.239,1012.36 42,1014.6 42,1017.36C42,1018.28 42.255,1019.12 42.688,1019.86L37.344,1024.61C37.13,1024.8 37.001,1025.08 37,1025.36L37,1039.36L14,1039.36C13.429,1039.36 13,1038.93 13,1038.36L13,1024.36L25,1024.36C25.342,1024.35 25.673,1024.16 25.844,1023.86L31.281,1015.02C31.822,1015.22 32.39,1015.36 33,1015.36C35.761,1015.36 38,1013.12 38,1010.36C38,1007.6 35.761,1005.36 33,1005.36C30.239,1005.36 28,1007.6 28,1010.36C28,1011.8 28.623,1013.08 29.594,1013.99L24.438,1022.36L13,1022.36L13,988.362L23.563,988.362L28,993.362C27.376,994.196 27,995.24 27,996.362C27,999.124 29.239,1001.36 32,1001.36C34.761,1001.36 37,999.124 37,996.362C37,993.601 34.761,991.362 32,991.362C31.089,991.362 30.267,991.624 29.531,992.05L24.75,986.675C24.558,986.472 24.279,986.356 24,986.362L13,986.362L13,966.362C13,965.791 13.429,965.362 14,965.362Z" style="fill:rgb(17,17,17);fill-rule:nonzero;"/>
            </g>
        </g>
    </g>
    <g id="SvgjsG1185" transform="matrix(3.00836,0,0,3.00836,160.517,1.51251)">
        <path d="M8.175,19.96C6.694,19.96 5.495,18.76 5.495,17.28L5.495,8.4C5.495,6.92 6.695,5.72 8.175,5.72C9.654,5.72 10.855,6.92 10.855,8.4L10.855,9.2L8.955,9.2L8.955,8.4C8.955,7.98 8.595,7.62 8.175,7.62C7.755,7.62 7.395,7.98 7.395,8.4L7.395,17.28C7.395,17.7 7.755,18.06 8.175,18.06C8.595,18.06 8.955,17.7 8.955,17.28L8.955,16L10.855,16L10.855,17.28C10.855,18.76 9.655,19.96 8.175,19.96ZM18.669,20L17.949,15.06L15.929,15.06L15.269,20L13.349,20L15.509,5.7L18.089,5.7L20.589,20L18.669,20ZM16.189,13.16L17.669,13.16L16.909,7.96L16.189,13.16ZM27.984,5.68L27.984,7.6L25.604,7.6L25.604,20.02L23.684,20.02L23.684,7.6L21.064,7.6L21.064,5.68L27.984,5.68ZM33.158,19.96C31.678,19.96 30.478,18.76 30.478,17.28L30.478,8.4C30.478,6.92 31.678,5.72 33.158,5.72C34.638,5.72 35.838,6.92 35.838,8.4L35.838,9.2L33.938,9.2L33.938,8.4C33.938,7.98 33.578,7.62 33.158,7.62C32.738,7.62 32.378,7.98 32.378,8.4L32.378,17.28C32.378,17.7 32.738,18.06 33.158,18.06C33.578,18.06 33.938,17.7 33.938,17.28L33.938,16L35.838,16L35.838,17.28C35.838,18.76 34.638,19.96 33.158,19.96ZM41.933,5.72L43.833,5.72L43.833,19.98L41.933,19.98L41.933,12.44L40.233,12.44L40.233,19.98L38.333,19.98L38.333,5.72L40.233,5.72L40.233,10.56L41.933,10.56L41.933,5.72ZM50.987,12.46L48.227,12.46L48.227,18.1L51.007,18.1L51.007,20L46.327,20L46.327,5.72L51.007,5.72L51.007,7.62L48.227,7.62L48.227,10.56L50.987,10.56L50.987,12.46ZM58.982,20.04L56.942,20.04L55.842,17.02L55.402,17.02L55.402,20.04L53.502,20.04L53.502,5.72L56.482,5.72C57.802,5.72 58.862,6.78 58.862,8.1L58.862,14.64C58.862,15.5 58.422,16.24 57.742,16.66L58.982,20.04ZM55.402,7.62L55.402,15.12L56.482,15.12C56.742,15.12 56.962,14.9 56.962,14.64L56.962,8.1C56.962,7.84 56.742,7.62 56.482,7.62L55.402,7.62Z" style="fill:rgb(17,17,17);fill-rule:nonzero;"/>
    </g>
</svg>
